<svg width="24" height="24" viewBox="0 0 24 24" fill="none" xmlns="http://www.w3.org/2000/svg">
<g id="Job - Icon">
<path id="Vector" d="M2 17C2 18.3261 2.52678 19.5979 3.46447 20.5355C4.40215 21.4732 5.67392 22 7 22C8.32608 22 9.59785 21.4732 10.5355 20.5355C11.4732 19.5979 12 18.3261 12 17C12 14.24 9.5 12 7 14C4.5 12 2 14.24 2 17Z" stroke="white" stroke-width="2" stroke-linecap="round" stroke-linejoin="round"/>
<path id="Vector_2" d="M12 17C12 18.3261 12.5268 19.5979 13.4645 20.5355C14.4021 21.4732 15.6739 22 17 22C18.3261 22 19.5979 21.4732 20.5355 20.5355C21.4732 19.5979 22 18.3261 22 17C22 14.24 19.5 12 17 14C14.5 12 12 14.24 12 17Z" stroke="white" stroke-width="2" stroke-linecap="round" stroke-linejoin="round"/>
<path id="Vector_3" d="M7 14C10.22 11.09 11.29 5.25 12 2C13.66 4.38 16.94 11 17 14" stroke="white" stroke-width="2" stroke-linecap="round" stroke-linejoin="round"/>
<path id="Vector_4" d="M22 9C17.71 9 14.86 6.67 12 2C17.71 2 22 6.67 22 9Z" stroke="white" stroke-width="2" stroke-linecap="round" stroke-linejoin="round"/>
</g>
</svg>
